<?xml version="1.0" encoding="UTF-8" standalone="no"?><!DOCTYPE svg PUBLIC "-//W3C//DTD SVG 1.1//EN" "http://www.w3.org/Graphics/SVG/1.1/DTD/svg11.dtd"><svg width="100%" height="100%" viewBox="0 0 2159 1971" version="1.1" xmlns="http://www.w3.org/2000/svg" xmlns:xlink="http://www.w3.org/1999/xlink" xml:space="preserve" xmlns:serif="http://www.serif.com/" style="fill-rule:evenodd;clip-rule:evenodd;stroke-miterlimit:2;"><g><path d="M2025.83,1024.58c2.5,-70.833 -56.25,-123.75 -122.916,-121.25c-63.75,2.5 -116.25,53.75 -114.584,122.913c1.25,54.587 43.75,119.171 129.167,114.583c55.833,-2.496 110,-52.908 108.333,-116.246Zm-118.333,476.663c75,-0 118.333,-47.083 118.333,-129.167c0,-52.912 -50.833,-110.417 -121.666,-108.333c-60,1.671 -120,51.671 -115.834,128.754c2.5,53.329 54.167,115.417 119.167,108.746Zm-1107.5,-1043.75c-51.25,-51.25 -98.75,-98.333 -145.833,-145.833c-33.75,-34.167 -37.084,-79.167 -8.75,-111.667c29.166,-33.333 77.5,-37.083 111.25,-6.667c25,22.084 47.916,46.667 71.666,70.417c37.5,37.5 75,75 113.75,113.75c5.417,-5 10.417,-9.583 15,-14.167c103.334,-103.333 206.667,-206.666 309.584,-310c16.666,-17.083 37.083,-30.416 60,-28.333c41.666,3.75 78.333,32.917 76.666,83.75c-0.416,22.083 -10.833,40 -26.25,55.417c-92.5,92.083 -184.583,184.583 -277.083,277.083c-4.167,4.167 -8.333,8.746 -15.421,16.25l923.338,-0c75.416,-0 127.912,52.912 127.912,128.75l0,1236.66c0,71.67 -55.412,127.083 -127.079,127.083l-1860.42,-0c-71.666,-0 -127.5,-55.413 -127.5,-126.663l0,-1240.42c0,-71.25 54.167,-125 125.83,-125.417l653.337,-0Z" style="fill:#fff;fill-rule:nonzero;"/><path d="M2025.83,1024.58c2.5,-70.833 -56.25,-123.75 -122.916,-121.25c-63.75,2.5 -116.25,53.75 -114.584,122.913c1.25,54.587 43.75,119.171 129.167,114.583c55.833,-2.496 110,-52.908 108.333,-116.246Zm-118.333,476.663c75,-0 118.333,-47.083 118.333,-129.167c0,-52.912 -50.833,-110.417 -121.666,-108.333c-60,1.671 -120,51.671 -115.834,128.754c2.5,53.329 54.167,115.417 119.167,108.746Zm-1107.5,-1043.75c-51.25,-51.25 -98.75,-98.333 -145.833,-145.833c-33.75,-34.167 -37.084,-79.167 -8.75,-111.667c29.166,-33.333 77.5,-37.083 111.25,-6.667c25,22.084 47.916,46.667 71.666,70.417c37.5,37.5 75,75 113.75,113.75c5.417,-5 10.417,-9.583 15,-14.167c103.334,-103.333 206.667,-206.666 309.584,-310c16.666,-17.083 37.083,-30.416 60,-28.333c41.666,3.75 78.333,32.917 76.666,83.75c-0.416,22.083 -10.833,40 -26.25,55.417c-92.5,92.083 -184.583,184.583 -277.083,277.083c-4.167,4.167 -8.333,8.746 -15.421,16.25l923.338,-0c75.416,-0 127.912,52.912 127.912,128.75l0,1236.66c0,71.67 -55.412,127.083 -127.079,127.083l-1860.42,-0c-71.666,-0 -127.5,-55.413 -127.5,-126.663l0,-1240.42c0,-71.25 54.167,-125 125.83,-125.417l653.337,-0Z" style="fill:none;stroke:#234360;stroke-width:41.67px;"/><path d="M318.75,614.167l1244.17,-0c76.666,-0 127.916,62.083 127.916,139.166c0,286.667 -1.25,910 -6.25,934.584c-11.25,59.996 -65.833,103.333 -120.416,103.333c-287.084,0.413 -581.667,0.413 -868.75,0.413l-378.75,-0c-73.334,-0 -136.255,-62.5 -136.255,-135.83l0,-904.166c0,-75.417 62.5,-137.5 138.338,-137.5Z" style="fill:#ad1f23;fill-rule:nonzero;"/><path d="M1684.58,1687.92c-11.25,59.996 -65.833,103.333 -120.416,103.333l-1342.5,-1137.09l1462.92,1033.76Z" style="fill:#8e191b;fill-rule:nonzero;"/><path d="M430.833,1338.33l34.167,0c63.75,0 72.917,-78.333 72.917,-118.75c-0,-36.254 -5.834,-66.254 -17.5,-86.666c-11.25,-20 -28.334,-32.084 -57.917,-32.084l-31.667,0l0,237.5Zm-78.333,-310.004l110,0c56.25,0 92.917,21.667 118.333,56.254c25,34.584 37.917,82.5 37.917,135c0,104.167 -51.667,191.25 -153.333,191.25l-112.505,0l0,-382.504l-0.412,0Z" style="fill:#8e191b;fill-rule:nonzero;"/><path d="M955.833,1262.5c-0.416,87.5 -48.75,155.416 -138.333,155.416c-83.75,0 -138.333,-64.583 -138.333,-198.329c-0,-133.746 54.583,-198.333 138.333,-198.333c92.5,0 139.583,69.583 138.333,158.75l-80.416,-0c-2.084,-68.338 -21.667,-84.171 -51.667,-84.171c-36.25,0 -64.167,32.5 -64.167,124.167c0,91.254 27.917,124.171 64.167,124.171c40.833,-0 49.583,-40.417 51.667,-81.25l80.416,-0.421Z" style="fill:#8e191b;fill-rule:nonzero;"/><path d="M1078.75,1100.83l-64.167,0l0,-72.504l206.667,0l0,72.504l-64.167,0l0,310l-78.333,0l-0,-310Z" style="fill:#8e191b;fill-rule:nonzero;"/><path d="M1263.33,1028.33l76.667,0l63.75,262.921l64.583,-262.921l72.917,0l-104.167,382.504l-69.166,0l-104.584,-382.504Z" style="fill:#8e191b;fill-rule:nonzero;"/><path d="M412.083,1318.75l34.167,-0c63.75,-0 72.917,-78.329 72.917,-118.75c-0,-36.25 -5.834,-66.246 -17.5,-86.663c-11.25,-20 -28.334,-32.087 -57.917,-32.087l-31.667,-0l0,237.5Zm-78.333,-309.996l110,0c56.25,0 92.917,21.662 118.333,56.25c25,34.583 37.917,82.5 37.917,134.996c0,104.166 -51.667,191.254 -153.333,191.254l-112.505,-0l0,-382.5l-0.412,0Z" style="fill:#fff;fill-rule:nonzero;"/><path d="M937.083,1242.5c-0.416,87.5 -48.75,155.412 -138.333,155.412c-83.75,0 -138.333,-64.583 -138.333,-198.329c-0,-133.754 54.583,-198.337 138.333,-198.337c92.5,-0 139.583,69.583 138.333,158.754l-80.416,-0c-2.084,-68.338 -21.667,-84.162 -51.667,-84.162c-36.25,-0 -64.167,32.491 -64.167,124.158c0,91.254 27.917,124.166 64.167,124.166c40.833,0 49.583,-40.412 51.667,-81.25l80.416,-0.412Z" style="fill:#fff;fill-rule:nonzero;"/><path d="M1060,1080.83l-64.167,0l0,-72.504l206.667,0l0,72.504l-64.167,0l0,309.996l-78.333,0l-0,-309.996Z" style="fill:#fff;fill-rule:nonzero;"/><path d="M1244.58,1008.75l76.667,0l63.75,262.917l64.583,-262.917l73.334,0l-104.167,382.5l-69.167,-0l-105,-382.5Z" style="fill:#fff;fill-rule:nonzero;"/><path d="M1907.92,1501.67c-64.584,6.662 -116.667,-55.417 -119.584,-109.167c-4.166,-77.083 55.834,-127.083 115.834,-128.754c71.25,-1.663 121.666,55.837 121.666,108.333c0.417,82.504 -43.333,129.588 -117.916,129.588Z" style="fill:#234360;fill-rule:nonzero;"/><path d="M2026.25,1025c1.667,63.342 -52.5,113.75 -108.333,116.666c-85.417,4.167 -127.917,-59.991 -129.167,-114.583c-1.667,-69.579 51.25,-120.417 114.583,-122.917c66.667,-2.912 125.417,50 122.917,120.834Z" style="fill:#234360;fill-rule:nonzero;"/></g></svg>